<svg width="71.984558" height="40.004822" viewBox="0 0 71.9846 40.0048" fill="none" xmlns="http://www.w3.org/2000/svg" xmlns:xlink="http://www.w3.org/1999/xlink">
	<desc>
			Created with Pixso.
	</desc>
	<defs/>
	<path id="Vector" d="M38.67 10.3L55.97 25.13C55.77 25.25 55.57 25.38 55.37 25.51C53.12 27.06 50.36 28.05 47.97 28.05C45.52 28.05 42.87 27.08 40.57 25.51C37.81 23.57 34.12 23.57 31.36 25.51C29.22 26.98 26.61 28.05 23.96 28.05C22.7 28.05 21.32 27.77 19.97 27.27C20.37 12.15 32.76 0 47.99 0L55.99 0C58.2 0 59.99 1.78 59.99 4C59.99 6.21 58.2 8 55.99 8L47.99 8C44.62 8 41.45 8.82 38.67 10.3ZM19.99 8C19.99 10.12 19.14 12.15 17.64 13.65C16.14 15.15 14.11 16 11.99 16C9.87 16 7.83 15.15 6.33 13.65C4.83 12.15 3.99 10.12 3.99 8C3.99 5.87 4.83 3.84 6.33 2.34C7.83 0.84 9.87 0 11.99 0C14.11 0 16.14 0.84 17.64 2.34C19.14 3.84 19.99 5.87 19.99 8ZM38.3 28.73C41.11 30.67 44.55 32 47.99 32C51.35 32 54.91 30.65 57.66 28.73C59.15 27.67 61.17 27.76 62.56 28.95C64.36 30.43 66.62 31.57 68.89 32.09C71.04 32.59 72.37 34.75 71.87 36.9C71.37 39.05 69.22 40.38 67.07 39.88C64.01 39.17 61.46 37.82 59.8 36.76C56.17 38.71 52.11 40 47.99 40C44 40 40.41 38.76 37.94 37.63C37.21 37.3 36.55 36.97 35.99 36.67C35.42 36.97 34.77 37.31 34.04 37.63C31.56 38.76 27.97 40 23.99 40C19.86 40 15.8 38.71 12.17 36.77C10.5 37.82 7.96 39.18 4.9 39.9C2.75 40.4 0.6 39.06 0.1 36.91C-0.4 34.76 0.94 32.61 3.09 32.11C5.35 31.58 7.61 30.45 9.41 28.96C10.8 27.78 12.82 27.7 14.31 28.75C17.07 30.65 20.62 32 23.99 32C27.42 32 30.86 30.67 33.67 28.73C35.06 27.75 36.91 27.75 38.3 28.73Z" fill="#D8AE5E" fill-opacity="1.000000" fill-rule="nonzero"/>
</svg>
