<svg width="72.000000" height="56.000000" viewBox="0 0 72 56" fill="none" xmlns="http://www.w3.org/2000/svg" xmlns:xlink="http://www.w3.org/1999/xlink">
	<desc>
			Created with Pixso.
	</desc>
	<defs/>
	<path id="Vector" d="M3.6 0C1.6 0 0 1.78 0 4C0 6.21 1.6 8 3.6 8L3.6 28C3.6 34.62 8.43 40 14.4 40L14.4 44L21.6 44L21.6 40L43.2 40L43.2 44L50.4 44L50.4 40C56.36 40 61.2 34.62 61.2 28L61.2 16C63.19 16 64.8 14.21 64.8 12C64.8 9.78 63.19 8 61.2 8L57.6 8L54 8C52 8 50.4 9.78 50.4 12L50.4 17.16C50.4 20.93 47.64 24 44.24 24C35.75 24 27.86 19.13 23.36 11.13L22.88 10.27C19.59 4.45 14.06 0.7 7.95 0.08C7.7 0.02 7.45 0 7.2 0L6.18 0L3.6 0ZM72 44C72 41.78 70.39 40 68.4 40C66.4 40 64.8 41.78 64.8 44L64.8 45C64.8 46.66 63.59 48 62.1 48L7.2 48C5.2 48 3.6 49.78 3.6 52C3.6 54.21 5.2 56 7.2 56L62.1 56C67.56 56 72 51.07 72 45L72 44Z" fill="#D8AE5E" fill-opacity="1.000000" fill-rule="nonzero"/>
</svg>
