<svg width="64.004196" height="63.987488" viewBox="0 0 64.0042 63.9875" fill="none" xmlns="http://www.w3.org/2000/svg" xmlns:xlink="http://www.w3.org/1999/xlink">
	<desc>
			Created with Pixso.
	</desc>
	<defs/>
	<path id="Vector" d="M26.21 0.42C28.19 -0.57 30.59 0.23 31.58 2.21L34.7 8.46L40 9.52C42.44 10.01 44.73 11.06 46.69 12.58L62.45 24.85C64.2 26.21 64.51 28.72 63.15 30.46C61.79 32.2 59.28 32.52 57.54 31.16L48.53 24.15L39.59 28.12L43.73 31.57C46.63 33.98 47.91 37.82 47.06 41.5L44.89 50.9C44.61 52.07 43.86 53 42.88 53.52L53.69 57.66C54.26 57.88 54.86 57.98 55.48 57.98L59 57.98C60.66 57.98 62 59.32 62 60.98C62 62.65 60.66 63.98 59 63.98L55.48 63.98C54.13 63.98 52.8 63.73 51.54 63.26L7.51 46.41C6.08 45.86 4.76 45.01 3.66 43.91L0.88 41.12C-0.3 39.95 -0.3 38.05 0.88 36.88C2.05 35.72 3.95 35.71 5.11 36.88L7.91 39.68C8.41 40.18 9 40.57 9.66 40.82L12.46 41.9C12.36 41.7 12.28 41.5 12.2 41.28C11.5 39.18 12.64 36.92 14.73 36.22L24 33.11L24 26.46C24 23.43 25.71 20.66 28.43 19.31L34.08 16.48L33.14 16.29C30.71 15.81 28.65 14.23 27.55 12.03L24.43 5.78C23.44 3.81 24.24 1.41 26.21 0.42ZM17.38 43.76L37.25 51.37C36.99 50.67 36.93 49.88 37.11 49.1L39.29 39.7C39.46 38.96 39.2 38.2 38.63 37.71L32.03 32.21L32.03 34.56C32.03 37.15 30.38 39.43 27.93 40.25L17.38 43.76ZM54 0C55.59 0 57.12 0.63 58.24 1.75C59.37 2.88 60 4.4 60 6C60 7.59 59.37 9.11 58.24 10.24C57.12 11.36 55.59 12 54 12C52.41 12 50.88 11.36 49.76 10.24C48.63 9.11 48 7.59 48 6C48 4.4 48.63 2.88 49.76 1.75C50.88 0.63 52.41 0 54 0Z" fill="#D8AE5E" fill-opacity="1.000000" fill-rule="nonzero"/>
</svg>
