<svg width="72.000000" height="56.000000" viewBox="0 0 72 56" fill="none" xmlns="http://www.w3.org/2000/svg" xmlns:xlink="http://www.w3.org/1999/xlink">
	<desc>
			Created with Pixso.
	</desc>
	<defs/>
	<path id="Vector" d="M22.88 25.41C27.1 28 30.75 31.42 33.61 35.47C34.48 36.71 35.28 38.01 36 39.34C36.71 38 37.51 36.71 38.38 35.47C41.25 31.42 44.9 28 49.11 25.41C54.7 21.97 61.26 20 68.25 20L69.48 20C70.87 20 72 21.12 72 22.51C72 41.01 57.01 56 38.51 56L36 56L33.48 56C14.98 56 0 41.01 0 22.51C0 21.12 1.12 20 2.51 20L3.75 20C10.73 20 17.29 21.97 22.88 25.41ZM37.68 0.7C39.65 2.81 45.32 9.67 48.23 21.27C43.48 23.97 39.31 27.62 36 31.97C32.68 27.62 28.51 23.98 23.76 21.27C26.66 9.67 32.33 2.81 34.31 0.7C34.75 0.23 35.36 0 36 0C36.63 0 37.25 0.23 37.68 0.7Z" fill="#D8AE5E" fill-opacity="1.000000" fill-rule="nonzero"/>
</svg>
