<svg width="56.000000" height="64.000000" viewBox="0 0 56 64" fill="none" xmlns="http://www.w3.org/2000/svg" xmlns:xlink="http://www.w3.org/1999/xlink">
	<desc>
			Created with Pixso.
	</desc>
	<defs/>
	<path id="Vector" d="M26.32 0.73L7.75 21.17C7.26 21.7 7 22.4 7 23.11C7 24.71 8.28 26 9.88 26L13 26L3.82 35.17C3.29 35.7 3 36.42 3 37.17C3 38.73 4.26 40 5.82 40L10 40L0.67 51.18C0.23 51.71 0 52.37 0 53.06C0 54.68 1.31 56 2.93 56L24 56L24 60C24 62.21 25.78 64 28 64C30.21 64 32 62.21 32 60L32 56L53.06 56C54.68 56 56 54.68 56 53.06C56 52.37 55.76 51.71 55.32 51.18L46 40L50.17 40C51.73 40 53 38.73 53 37.17C53 36.42 52.7 35.7 52.17 35.17L43 26L46.11 26C47.7 26 49 24.71 49 23.11C49 22.4 48.73 21.7 48.25 21.17L29.67 0.73C29.25 0.26 28.63 0 28 0C27.36 0 26.75 0.26 26.32 0.73Z" fill="#D8AE5E" fill-opacity="1.000000" fill-rule="nonzero"/>
</svg>
