<svg width="56.000000" height="64.000000" viewBox="0 0 56 64" fill="none" xmlns="http://www.w3.org/2000/svg" xmlns:xlink="http://www.w3.org/1999/xlink">
	<desc>
			Created with Pixso.
	</desc>
	<defs/>
	<path id="Vector" d="M52 0C50 0 36 4 36 22L36 36C36 40.41 39.58 44 44 44L48 44L48 60C48 62.21 49.78 64 52 64C54.21 64 56 62.21 56 60L56 44L56 30L56 4C56 1.78 54.21 0 52 0ZM8 2C8 0.97 7.23 0.12 6.21 0.01C5.18 -0.1 4.27 0.57 4.05 1.56L0.26 18.6C0.08 19.38 0 20.18 0 20.98C0 26.72 4.38 31.43 10 31.95L10 60C10 62.21 11.78 64 14 64C16.21 64 18 62.21 18 60L18 31.95C23.61 31.43 28 26.72 28 20.98C28 20.18 27.91 19.38 27.73 18.6L23.95 1.56C23.72 0.56 22.78 -0.1 21.77 0.01C20.76 0.12 20 0.97 20 2L20 18.77C20 19.45 19.45 20 18.77 20C18.13 20 17.61 19.51 17.54 18.87L15.98 1.82C15.9 0.78 15.03 0 14 0C12.96 0 12.1 0.78 12.01 1.82L10.46 18.87C10.4 19.51 9.87 20 9.23 20C8.56 20 8.01 19.45 8.01 18.77L8.01 2L8 2ZM14.03 21L14 21L13.96 21L14 20.91L14.03 21Z" fill="#D8AE5E" fill-opacity="1.000000" fill-rule="nonzero"/>
</svg>
