<svg width="47.217529" height="64.000000" viewBox="0 0 47.2175 64" fill="none" xmlns="http://www.w3.org/2000/svg" xmlns:xlink="http://www.w3.org/1999/xlink">
	<desc>
			Created with Pixso.
	</desc>
	<defs/>
	<path id="Vector" d="M23.21 6C23.21 4.4 23.84 2.88 24.97 1.75C26.1 0.63 27.62 0 29.21 0C30.8 0 32.33 0.63 33.46 1.75C34.58 2.88 35.21 4.4 35.21 6C35.21 7.59 34.58 9.11 33.46 10.24C32.33 11.36 30.8 12 29.21 12C27.62 12 26.1 11.36 24.97 10.24C23.84 9.11 23.21 7.59 23.21 6ZM29.63 28.83L27.24 38.37L33.45 44.58C34.58 45.71 35.21 47.23 35.21 48.82L35.21 60C35.21 62.21 33.43 64 31.21 64C29 64 27.21 62.21 27.21 60L27.21 49.66L17.98 40.42C16 38.45 15.2 35.59 15.86 32.88L18.41 22.38C19.45 18.12 23.75 15.52 28 16.58C30.38 17.18 32.45 18.63 33.8 20.67L37.35 26L41.21 26L41.21 23C41.21 21.33 42.55 20 44.21 20C45.88 20 47.21 21.33 47.21 23L47.21 29.97C47.21 29.98 47.21 30 47.21 30L47.21 30.02L47.21 61C47.21 62.66 45.88 64 44.21 64C42.55 64 41.21 62.66 41.21 61L41.21 34L36.29 34C34.29 34 32.41 33 31.3 31.32L29.64 28.82L29.63 28.83ZM9.35 58.98L13.88 41.75C14.25 42.27 14.68 42.77 15.14 43.23L20.37 48.47L17.08 61.01C16.51 63.15 14.33 64.42 12.19 63.86C10.05 63.3 8.78 61.11 9.34 58.97L9.35 58.98ZM16.29 15.73L11.89 33.31C11.51 34.82 10.03 35.8 8.49 35.55L2.5 34.55C0.75 34.26 -0.36 32.51 0.1 30.8L3.2 19.37C4.39 15.02 8.34 12 12.85 12L13.38 12C15.33 12 16.76 13.83 16.29 15.72L16.29 15.73Z" fill="#D8AE5E" fill-opacity="1.000000" fill-rule="nonzero"/>
</svg>
