<svg width="32.000000" height="32.000000" viewBox="0 0 32 32" fill="none" xmlns="http://www.w3.org/2000/svg" xmlns:xlink="http://www.w3.org/1999/xlink">
	<desc>
			Created with Pixso.
	</desc>
	<defs>
		<clipPath id="clip14_4364">
			<rect id="Button" rx="-0.500000" width="31.000000" height="31.000000" transform="translate(0.500000 0.500000)" fill="white" fill-opacity="0"/>
		</clipPath>
	</defs>
	<rect id="Button" rx="-0.500000" width="31.000000" height="31.000000" transform="translate(0.500000 0.500000)" fill="#FFFFFF" fill-opacity="0"/>
	<g clip-path="url(#clip14_4364)">
		<path id="Vector" d="M32 6.14C32 2.75 29.3 0 25.99 0L6 0C2.69 0 0 2.75 0 6.14L0 25.85C0 29.24 2.69 32 6 32L25.99 32C29.3 32 32 29.24 32 25.85L32 6.14Z" fill="#D8AE5E" fill-opacity="1.000000" fill-rule="evenodd"/>
		<path id="Vector" d="M0 19.87L15.98 19.87L15.98 31.99L0 31.99L0 19.87Z" fill="#D8AE5E" fill-opacity="1.000000" fill-rule="evenodd"/>
		<path id="Vector" d="M14.54 21.18L11.96 21.17L11.96 18.02C11.96 17.35 12.22 17 12.78 16.92L14.54 16.92C15.79 16.92 16.6 17.73 16.6 19.04C16.6 20.38 15.81 21.17 14.54 21.18ZM11.96 12.68L11.96 11.85C11.96 11.12 12.26 10.78 12.92 10.73L14.24 10.73C15.37 10.73 16.05 11.42 16.05 12.58C16.05 13.46 15.58 14.49 14.28 14.49L11.96 14.49L11.96 12.68ZM17.83 15.82L17.36 15.55L17.77 15.2C18.24 14.78 19.04 13.85 19.04 12.23C19.04 9.76 17.16 8.16 14.26 8.16L10.95 8.16L10.95 8.16L10.57 8.16C9.71 8.2 9.02 8.91 9.01 9.8L9.01 23.83L14.33 23.83C17.55 23.83 19.63 22.03 19.63 19.25C19.63 17.75 18.96 16.47 17.83 15.82Z" fill="#FFFFFF" fill-opacity="1.000000" fill-rule="nonzero"/>
		<path id="Vector" d="M21.02 21.89C21.02 20.82 21.86 19.95 22.9 19.95C23.95 19.95 24.8 20.82 24.8 21.89C24.8 22.96 23.95 23.83 22.9 23.83C21.86 23.83 21.02 22.96 21.02 21.89Z" fill="#F4F4F4" fill-opacity="1.000000" fill-rule="evenodd"/>
	</g>
</svg>
