<svg width="24.000000" height="24.000000" viewBox="0 0 24 24" fill="none" xmlns="http://www.w3.org/2000/svg" xmlns:xlink="http://www.w3.org/1999/xlink">
	<desc>
			Created with Pixso.
	</desc>
	<defs>
		<clipPath id="clip14_4356">
			<rect id="Vertical container" rx="-0.500000" width="23.000000" height="23.000000" transform="translate(0.500000 0.500000)" fill="white" fill-opacity="0"/>
		</clipPath>
	</defs>
	<rect id="Vertical container" rx="-0.500000" width="23.000000" height="23.000000" transform="translate(0.500000 0.500000)" fill="#FFFFFF" fill-opacity="0"/>
	<g clip-path="url(#clip14_4356)">
		<path id="Vector" d="M21.54 15L17 15C16.46 15 15.96 15.21 15.58 15.58C15.21 15.96 15 16.46 15 17L15 21.54" stroke="#D8AE5E" stroke-opacity="1.000000" stroke-width="2.000000" stroke-linejoin="round" stroke-linecap="round"/>
		<path id="Vector" d="M7 3.33L7 4.99C7 5.79 7.31 6.55 7.87 7.12C8.44 7.68 9.2 7.99 10 7.99C10.53 7.99 11.03 8.21 11.41 8.58C11.78 8.96 12 9.46 12 9.99C12 11.09 12.9 11.99 14 11.99C14.53 11.99 15.03 11.78 15.41 11.41C15.78 11.03 16 10.53 16 9.99C16 8.89 16.9 7.99 18 7.99L21.17 7.99" stroke="#D8AE5E" stroke-opacity="1.000000" stroke-width="2.000000" stroke-linejoin="round" stroke-linecap="round"/>
		<path id="Vector" d="M11 21.95L11 18C11 17.46 10.78 16.96 10.41 16.58C10.03 16.21 9.53 16 8.99 16C8.46 16 7.96 15.78 7.58 15.41C7.21 15.03 6.99 14.53 6.99 14L6.99 13C6.99 12.46 6.78 11.96 6.41 11.58C6.03 11.21 5.53 11 4.99 11L2.04 11" stroke="#D8AE5E" stroke-opacity="1.000000" stroke-width="2.000000" stroke-linejoin="round" stroke-linecap="round"/>
		<path id="Vector" d="M12 22C6.47 22 2 17.52 2 12C2 6.47 6.47 2 12 2C17.52 2 22 6.47 22 12C22 17.52 17.52 22 12 22Z" stroke="#D8AE5E" stroke-opacity="1.000000" stroke-width="2.000000" stroke-linejoin="round"/>
	</g>
</svg>
