<svg width="217.000000" height="114.000000" viewBox="0 0 217 114" fill="none" xmlns="http://www.w3.org/2000/svg" xmlns:xlink="http://www.w3.org/1999/xlink">
	<desc>
			Created with Pixso.
	</desc>
	<defs>
		<clipPath id="clip14_4151">
			<rect id="Logo" rx="-0.500000" width="216.000000" height="113.000000" transform="translate(0.500000 0.500000)" fill="white" fill-opacity="0"/>
		</clipPath>
	</defs>
	<rect id="Logo" rx="-0.500000" width="216.000000" height="113.000000" transform="translate(0.500000 0.500000)" fill="#FFFFFF" fill-opacity="0"/>
	<g clip-path="url(#clip14_4151)">
		<mask id="mask14_4153" mask-type="alpha" maskUnits="userSpaceOnUse" x="78.161743" y="0.810791" width="60.789463" height="60.802002">
			<path id="Vector" d="M78.16 0.81L138.95 0.81L138.95 61.61L78.16 61.61L78.16 0.81Z" fill="#000000" fill-opacity="1.000000" fill-rule="nonzero"/>
		</mask>
		<g mask="url(#mask14_4153)">
			<path id="Vector" d="M123.28 54.95L114.63 44.35C114.59 44.3 114.55 44.25 114.52 44.22L109.54 38.12L113.76 32.96L128.38 50.88C126.85 52.42 125.14 53.78 123.28 54.95ZM103.99 58.78L108.01 53.84L112.15 58.91C110.97 59.07 109.76 59.15 108.53 59.15C106.99 59.15 105.47 59.02 103.99 58.78ZM101.32 58.21C99.16 57.62 97.09 56.79 95.18 55.74L107.99 40.05L112.07 45.04L101.32 58.21ZM121.13 56.15C119.17 57.13 117.08 57.9 114.9 58.41L109.6 51.91L113.64 46.96L121.13 56.15ZM88.69 50.86L108.55 26.55L112.2 31.03L93.07 54.46C91.49 53.41 90.03 52.2 88.69 50.86ZM108.55 3.24C123.56 3.24 135.84 15.13 136.47 29.98L131.73 29.98C131.06 17.97 121.08 8.33 108.95 8.26C108.9 8.26 108.85 8.26 108.81 8.26C102.77 8.26 97.06 10.63 92.71 14.93C88.6 19 86.2 24.3 85.89 29.98L80.62 29.98C81.26 15.13 93.53 3.24 108.55 3.24ZM131.62 46.96C131.12 47.68 130.6 48.38 130.03 49.05L128.34 46.96L131.62 46.96ZM135.09 39.96C134.57 41.55 133.91 43.07 133.12 44.53L126.37 44.53L122.63 39.96L135.09 39.96ZM130.55 32.41L136.47 32.41C136.39 34.16 136.15 35.88 135.76 37.53L120.64 37.53L116.47 32.41L130.55 32.41ZM102.61 29.98L95.6 29.98C96.55 23.65 101.96 18.78 108.42 18.69C108.49 18.69 108.56 18.69 108.62 18.69C115.1 18.69 120.69 23.61 121.65 29.98L114.47 29.98L109.47 23.87C109.01 23.29 108.05 23.29 107.59 23.87L102.61 29.98ZM124.11 29.98C123.11 22.2 116.28 16.16 108.39 16.26C100.6 16.38 94.13 22.32 93.16 29.98L88.33 29.98C88.65 24.96 90.77 20.27 94.42 16.67C98.31 12.82 103.42 10.69 108.81 10.69C108.85 10.69 108.9 10.69 108.93 10.69C119.73 10.75 128.63 19.3 129.3 29.98L124.11 29.98ZM96.44 37.54C96.39 37.53 96.34 37.53 96.29 37.53L81.32 37.53C80.93 35.88 80.7 34.16 80.61 32.41L100.62 32.41L96.44 37.54ZM90.74 44.53L83.98 44.53C83.19 43.08 82.53 41.55 82.01 39.96L94.47 39.96L90.74 44.53ZM85.47 46.96L88.76 46.96L87.06 49.05C86.5 48.37 85.96 47.68 85.47 46.96ZM134.79 46.5C134.86 46.4 134.94 46.29 134.98 46.17C136.23 44 137.2 41.65 137.88 39.18C137.9 39.11 137.92 39.04 137.94 38.96C138.6 36.48 138.95 33.88 138.95 31.19C138.93 14.43 125.31 0.81 108.55 0.81C91.78 0.81 78.16 14.43 78.16 31.19C78.16 33.88 78.51 36.47 79.17 38.95C79.18 39.05 79.2 39.13 79.24 39.22C79.91 41.67 80.88 44.01 82.12 46.17C82.17 46.29 82.23 46.4 82.31 46.5C83.4 48.35 84.66 50.07 86.1 51.65C86.16 51.74 86.23 51.82 86.31 51.88C86.32 51.88 86.32 51.9 86.34 51.9C88.17 53.87 90.25 55.58 92.54 57.01C92.55 57.03 92.55 57.03 92.56 57.04C92.59 57.06 92.62 57.07 92.66 57.1C95.32 58.74 98.25 59.98 101.36 60.73C101.39 60.75 101.41 60.75 101.45 60.76C103.73 61.3 106.12 61.61 108.56 61.61C113.99 61.61 119.1 60.16 123.52 57.66C123.62 57.62 123.71 57.57 123.79 57.51C123.79 57.51 123.79 57.5 123.8 57.5C126.39 55.99 128.75 54.11 130.78 51.93C130.79 51.92 130.79 51.92 130.8 51.92C130.89 51.85 130.96 51.78 131.02 51.69C132.44 50.07 133.71 48.35 134.79 46.5Z" fill="#D8AE5E" fill-opacity="1.000000" fill-rule="nonzero"/>
		</g>
		<path id="Vector" d="M1.48 99.53L215.79 99.53" stroke="#F4F4F4" stroke-opacity="1.000000" stroke-width="2.001310" stroke-linecap="round"/>
		<path id="Vector" d="M23.11 90.93L23.68 90.93C24.13 90.93 24.48 90.79 24.74 90.51C25 90.24 25.13 89.85 25.13 89.35L25.13 77.21C25.13 76.92 25.03 76.68 24.84 76.48C24.64 76.29 24.41 76.19 24.12 76.19L23.11 76.19L23.11 75.48L28.02 75.48L33.52 87.03L38.71 75.48L43.48 75.48L43.48 76.19L41.61 76.19L41.61 90.93L43.48 90.93L43.48 91.66L36.98 91.66L36.98 90.93L37.99 90.93C38.28 90.93 38.52 90.83 38.71 90.64C38.9 90.45 39 90.21 39 89.93L39 76.77L32.93 90.06L32.21 90.06L25.85 76.77L25.85 90.93L27.87 90.93L27.87 91.66L23.11 91.66L23.11 90.93Z" fill="#F4F4F4" fill-opacity="1.000000" fill-rule="nonzero"/>
		<path id="Vector" d="M45.21 90.93L46.23 90.93C46.51 90.93 46.75 90.83 46.94 90.64C47.13 90.45 47.23 90.21 47.23 89.93L47.23 77.21C47.23 76.92 47.13 76.68 46.94 76.48C46.75 76.29 46.51 76.19 46.23 76.19L45.21 76.19L45.21 75.48L51.72 75.48L51.72 76.19L49.84 76.19L49.84 90.93L51.72 90.93L51.72 91.66L45.21 91.66L45.21 90.93Z" fill="#F4F4F4" fill-opacity="1.000000" fill-rule="nonzero"/>
		<path id="Vector" d="M62.26 92.1C61.07 92.1 59.96 91.88 58.94 91.46C57.92 91.03 57.04 90.44 56.28 89.67C55.53 88.92 54.94 88.02 54.51 86.98C54.09 85.93 53.89 84.8 53.89 83.57C53.89 82.33 54.09 81.19 54.51 80.16C54.94 79.12 55.53 78.22 56.28 77.46C57.04 76.7 57.92 76.1 58.94 75.68C59.96 75.25 61.07 75.04 62.26 75.04C63.46 75.04 64.57 75.25 65.59 75.68C66.61 76.1 67.49 76.7 68.25 77.46C69 78.22 69.58 79.12 70 80.16C70.43 81.19 70.64 82.33 70.64 83.57C70.64 84.8 70.43 85.93 70 86.98C69.58 88.02 69 88.92 68.25 89.67C67.49 90.44 66.61 91.03 65.59 91.46C64.57 91.88 63.46 92.1 62.26 92.1ZM62.26 91.51C62.97 91.51 63.67 91.34 64.36 91C65.04 90.67 65.64 90.17 66.17 89.5C66.68 88.82 67.1 87.99 67.42 87.02C67.74 86.03 67.9 84.88 67.9 83.57C67.9 82.28 67.74 81.14 67.42 80.14C67.1 79.15 66.68 78.32 66.17 77.65C65.64 76.97 65.04 76.47 64.36 76.13C63.67 75.79 62.97 75.62 62.26 75.62C61.53 75.62 60.82 75.79 60.15 76.13C59.47 76.47 58.88 76.97 58.36 77.65C57.84 78.32 57.43 79.15 57.11 80.14C56.79 81.14 56.63 82.28 56.63 83.57C56.63 84.88 56.79 86.03 57.11 87.02C57.43 87.99 57.84 88.82 58.36 89.5C58.88 90.17 59.47 90.67 60.15 91C60.82 91.34 61.53 91.51 62.26 91.51ZM60.38 73.31L65.15 69.12L66.59 69.98L60.82 73.46L60.38 73.31Z" fill="#F4F4F4" fill-opacity="1.000000" fill-rule="nonzero"/>
		<path id="Vector" d="M72.81 90.93L73.82 90.93C74.11 90.93 74.34 90.83 74.54 90.64C74.73 90.45 74.83 90.21 74.83 89.93L74.83 77.21C74.83 76.92 74.73 76.68 74.54 76.48C74.34 76.29 74.11 76.19 73.82 76.19L72.81 76.19L72.81 75.48L80.32 75.48C81.58 75.48 82.72 75.67 83.74 76.07C84.77 76.46 85.65 77.02 86.39 77.74C87.12 78.45 87.7 79.3 88.1 80.29C88.5 81.28 88.7 82.37 88.7 83.57C88.7 84.76 88.5 85.86 88.11 86.85C87.71 87.84 87.15 88.69 86.42 89.41C85.69 90.12 84.8 90.67 83.77 91.07C82.74 91.46 81.59 91.66 80.32 91.66L72.81 91.66L72.81 90.93ZM80.18 90.93C80.97 90.93 81.71 90.77 82.42 90.45C83.12 90.14 83.73 89.67 84.25 89.05C84.77 88.42 85.19 87.65 85.49 86.74C85.8 85.82 85.95 84.76 85.95 83.57C85.95 82.37 85.8 81.32 85.49 80.41C85.19 79.49 84.77 78.71 84.25 78.09C83.73 77.46 83.12 76.99 82.42 76.67C81.71 76.35 80.97 76.19 80.18 76.19L77.44 76.19L77.44 90.93L80.18 90.93Z" fill="#F4F4F4" fill-opacity="1.000000" fill-rule="nonzero"/>
		<path id="Vector" d="M99.25 90.93L99.83 90.93C100.27 90.93 100.62 90.79 100.88 90.51C101.14 90.24 101.27 89.85 101.27 89.35L101.27 77.21C101.27 76.92 101.17 76.68 100.98 76.48C100.79 76.29 100.55 76.19 100.27 76.19L99.25 76.19L99.25 75.48L104.17 75.48L109.66 87.03L114.85 75.48L119.62 75.48L119.62 76.19L117.75 76.19L117.75 90.93L119.62 90.93L119.62 91.66L113.12 91.66L113.12 90.93L114.14 90.93C114.42 90.93 114.66 90.83 114.85 90.64C115.04 90.45 115.14 90.21 115.14 89.93L115.14 76.77L109.07 90.06L108.35 90.06L102 76.77L102 90.93L104.02 90.93L104.02 91.66L99.25 91.66L99.25 90.93Z" fill="#F4F4F4" fill-opacity="1.000000" fill-rule="nonzero"/>
		<path id="Vector" d="M120.05 90.93L120.64 90.93C121.22 90.93 121.65 90.8 121.94 90.55C122.24 90.3 122.46 90 122.6 89.64L128 75.04L128.73 75.04L134.65 89.93C134.76 90.21 134.92 90.45 135.11 90.64C135.3 90.83 135.58 90.93 135.95 90.93L137.11 90.93L137.11 91.66L130.75 91.66L130.75 90.93L132.34 90.93L130.6 86.6L124.41 86.6L122.8 90.93L124.68 90.93L124.68 91.66L120.05 91.66L120.05 90.93ZM130.4 86.03L127.42 78.51L124.65 86.03L130.4 86.03Z" fill="#F4F4F4" fill-opacity="1.000000" fill-rule="nonzero"/>
		<path id="Vector" d="M137.54 90.93L138.55 90.93C138.83 90.93 139.07 90.83 139.27 90.64C139.46 90.45 139.56 90.21 139.56 89.93L139.56 77.21C139.56 76.92 139.46 76.68 139.27 76.48C139.07 76.29 138.83 76.19 138.55 76.19L137.54 76.19L137.54 75.48L144.05 75.48L144.05 76.19L142.16 76.19L142.16 90.93L145.49 90.93C146.77 90.93 147.71 90.7 148.31 90.23C148.91 89.76 149.32 89.08 149.53 88.19L149.81 87.03L150.39 87.03L150.39 91.66L137.54 91.66L137.54 90.93Z" fill="#F4F4F4" fill-opacity="1.000000" fill-rule="nonzero"/>
		<path id="Vector" d="M152.42 90.93L153.43 90.93C153.72 90.93 153.95 90.83 154.15 90.64C154.34 90.45 154.44 90.21 154.44 89.93L154.44 77.21C154.44 76.92 154.34 76.68 154.15 76.48C153.95 76.29 153.72 76.19 153.43 76.19L152.42 76.19L152.42 75.48L158.93 75.48L158.93 76.19L157.05 76.19L157.05 90.93L158.93 90.93L158.93 91.66L152.42 91.66L152.42 90.93Z" fill="#F4F4F4" fill-opacity="1.000000" fill-rule="nonzero"/>
		<path id="Vector" d="M163.26 78.07L163.26 90.93L165.13 90.93L165.13 91.66L160.36 91.66L160.36 90.93L161.09 90.93C162.05 90.93 162.53 90.42 162.53 89.4L162.53 77.21C162.53 76.92 162.44 76.68 162.25 76.48C162.05 76.29 161.81 76.19 161.52 76.19L160.36 76.19L160.36 75.48L164.62 75.48L174.81 87.61L174.81 76.19L172.79 76.19L172.79 75.48L177.71 75.48L177.71 76.19L176.98 76.19C176.54 76.19 176.19 76.34 175.93 76.62C175.67 76.89 175.54 77.28 175.54 77.79L175.54 91.94L174.96 91.94L163.26 78.07Z" fill="#F4F4F4" fill-opacity="1.000000" fill-rule="nonzero"/>
		<path id="Vector" d="M177.84 90.93L178.43 90.93C179.01 90.93 179.44 90.8 179.74 90.55C180.04 90.3 180.25 90 180.39 89.64L185.79 75.04L186.52 75.04L192.44 89.93C192.56 90.21 192.71 90.45 192.9 90.64C193.1 90.83 193.37 90.93 193.74 90.93L194.9 90.93L194.9 91.66L188.54 91.66L188.54 90.93L190.13 90.93L188.39 86.6L182.21 86.6L180.59 90.93L182.47 90.93L182.47 91.66L177.84 91.66L177.84 90.93ZM188.19 86.03L185.22 78.51L182.44 86.03L188.19 86.03Z" fill="#F4F4F4" fill-opacity="1.000000" fill-rule="nonzero"/>
		<path id="Vector" d="M76.58 113.44C77.76 113.44 78.98 112.13 78.98 110.46C78.98 108.79 77.76 107.48 76.58 107.48C75.39 107.48 74.17 108.79 74.17 110.46C74.17 112.13 75.39 113.44 76.58 113.44ZM76.58 113.15C75.43 113.15 75.15 111.85 75.15 110.46C75.15 109.07 75.43 107.77 76.58 107.77C77.72 107.77 78 109.07 78 110.46C78 111.85 77.72 113.15 76.58 113.15Z" fill="#F4F4F4" fill-opacity="1.000000" fill-rule="nonzero"/>
		<path id="Vector" d="M82.82 113.44C83.88 113.44 84.49 112.75 84.49 111.82C84.49 111.09 84.11 110.49 83.13 110.09L82.63 109.89C81.7 109.51 81.26 109.3 81.26 108.67C81.26 108.17 81.68 107.77 82.33 107.77C83.16 107.77 83.58 108.35 83.86 109.03C83.99 109.35 84 109.56 84.13 109.56C84.21 109.56 84.24 109.5 84.24 109.42C84.22 108.67 84.24 108.27 84.24 107.68C84.24 107.57 84.23 107.52 84.14 107.52C84.07 107.52 84.04 107.56 84 107.62C83.92 107.76 83.8 108 83.7 108C83.53 108 83.26 107.48 82.36 107.48C81.42 107.48 80.78 108.15 80.77 108.94C80.77 109.86 81.39 110.38 82.2 110.71L83.04 111.06C83.68 111.32 83.96 111.63 83.96 112.14C83.96 112.75 83.54 113.15 82.86 113.15C81.86 113.15 81.35 112.36 81.1 111.21C81.06 111.02 81.04 110.94 80.93 110.94C80.86 110.94 80.82 111 80.82 111.08C80.84 111.82 80.83 112.41 80.82 113.24C80.82 113.36 80.84 113.4 80.92 113.4C81.1 113.4 81.13 112.79 81.31 112.79C81.4 112.79 81.49 112.92 81.67 113.06C81.93 113.23 82.26 113.44 82.82 113.44Z" fill="#F4F4F4" fill-opacity="1.000000" fill-rule="nonzero"/>
		<path id="Vector" d="M85.91 113.36C86.12 113.36 86.35 113.32 86.81 113.32L86.92 113.32C87.25 113.32 87.54 113.36 87.69 113.36C87.79 113.36 87.85 113.31 87.85 113.18C87.85 113.05 87.79 113 87.69 113C87.57 113 87.46 113.03 87.32 113.03C87.09 113.03 87.01 112.94 87.01 112.81C87.01 112.76 87.02 112.7 87.05 112.63L87.42 111.54C87.48 111.39 87.58 111.32 87.75 111.32L88.87 111.32C89.04 111.32 89.14 111.39 89.2 111.54L89.58 112.62C89.67 112.89 89.53 113.03 89.31 113.03C89.18 113.03 89.04 113 88.91 113C88.82 113 88.75 113.05 88.75 113.18C88.75 113.31 88.82 113.36 88.91 113.36C89.12 113.36 89.24 113.32 89.74 113.32L90.34 113.32C90.8 113.32 90.95 113.36 91.16 113.36C91.26 113.36 91.32 113.31 91.32 113.18C91.32 113.05 91.26 113 91.16 113C91.04 113 90.96 113.03 90.86 113.03C90.64 113.03 90.53 112.88 90.47 112.7L89.14 108.84C89 108.45 88.87 108.07 88.76 107.68C88.72 107.54 88.65 107.48 88.56 107.48C88.46 107.48 88.4 107.57 88.35 107.72C88.22 108.15 88.13 108.41 87.94 108.95L86.71 112.6C86.62 112.9 86.44 113.03 86.25 113.03C86.07 113.03 86.04 113 85.91 113C85.82 113 85.75 113.05 85.75 113.18C85.75 113.31 85.82 113.36 85.91 113.36ZM87.8 111.03C87.63 111.03 87.61 110.99 87.66 110.84L88.18 109.28C88.2 109.21 88.24 109.15 88.29 109.15C88.35 109.15 88.39 109.21 88.42 109.29L88.95 110.84C89.01 110.99 88.98 111.03 88.82 111.03L87.8 111.03Z" fill="#F4F4F4" fill-opacity="1.000000" fill-rule="nonzero"/>
		<path id="Vector" d="M92.62 113.36C92.83 113.36 92.95 113.32 93.52 113.32L94.13 113.32C94.46 113.32 94.72 113.36 95.09 113.36C96.36 113.36 97.56 112.13 97.56 110.46C97.56 108.79 96.35 107.57 95.09 107.57C94.72 107.57 94.46 107.61 94.13 107.61L93.52 107.61C92.95 107.61 92.83 107.57 92.62 107.57C92.53 107.57 92.46 107.61 92.46 107.74C92.46 107.88 92.53 107.92 92.62 107.92C92.75 107.92 92.86 107.89 93.1 107.89C93.31 107.89 93.44 108.02 93.44 108.23L93.44 112.69C93.44 112.9 93.31 113.03 93.1 113.03C92.86 113.03 92.75 113 92.62 113C92.53 113 92.46 113.05 92.46 113.18C92.46 113.31 92.53 113.36 92.62 113.36ZM94.76 113.07C94.44 113.07 94.26 112.89 94.26 112.57L94.26 108.36C94.26 108.03 94.44 107.85 94.76 107.85L95.07 107.85C96.21 107.85 96.58 109.07 96.58 110.46C96.58 111.85 96.21 113.07 95.07 113.07L94.76 113.07Z" fill="#F4F4F4" fill-opacity="1.000000" fill-rule="nonzero"/>
		<path id="Vector" d="M98.95 113.36C99.15 113.36 99.39 113.32 99.84 113.32L99.95 113.32C100.28 113.32 100.57 113.36 100.72 113.36C100.82 113.36 100.89 113.31 100.89 113.18C100.89 113.05 100.82 113 100.72 113C100.6 113 100.49 113.03 100.36 113.03C100.13 113.03 100.04 112.94 100.04 112.81C100.04 112.76 100.06 112.7 100.08 112.63L100.45 111.54C100.51 111.39 100.62 111.32 100.78 111.32L101.91 111.32C102.07 111.32 102.18 111.39 102.23 111.54L102.61 112.62C102.7 112.89 102.56 113.03 102.34 113.03C102.21 113.03 102.07 113 101.95 113C101.85 113 101.78 113.05 101.78 113.18C101.78 113.31 101.85 113.36 101.95 113.36C102.15 113.36 102.28 113.32 102.77 113.32L103.38 113.32C103.83 113.32 103.99 113.36 104.19 113.36C104.29 113.36 104.35 113.31 104.35 113.18C104.35 113.05 104.29 113 104.19 113C104.07 113 103.99 113.03 103.89 113.03C103.68 113.03 103.56 112.88 103.5 112.7L102.17 108.84C102.04 108.45 101.91 108.07 101.79 107.68C101.75 107.54 101.68 107.48 101.59 107.48C101.49 107.48 101.44 107.57 101.39 107.72C101.25 108.15 101.17 108.41 100.98 108.95L99.74 112.6C99.65 112.9 99.48 113.03 99.28 113.03C99.1 113.03 99.07 113 98.95 113C98.85 113 98.78 113.05 98.78 113.18C98.78 113.31 98.85 113.36 98.95 113.36ZM100.83 111.03C100.67 111.03 100.64 110.99 100.69 110.84L101.21 109.28C101.24 109.21 101.27 109.15 101.32 109.15C101.39 109.15 101.43 109.21 101.45 109.29L101.99 110.84C102.05 110.99 102.01 111.03 101.85 111.03L100.83 111.03Z" fill="#F4F4F4" fill-opacity="1.000000" fill-rule="nonzero"/>
		<path id="Vector" d="M109.21 113.36C109.41 113.36 109.53 113.32 110.1 113.32L110.75 113.32C111.33 113.32 111.45 113.36 111.65 113.36C111.75 113.36 111.82 113.31 111.82 113.18C111.82 113.05 111.75 113 111.65 113C111.53 113 111.42 113.03 111.18 113.03C110.97 113.03 110.84 112.9 110.84 112.69L110.84 108.23C110.84 108.02 110.97 107.89 111.18 107.89C111.42 107.89 111.53 107.92 111.65 107.92C111.75 107.92 111.82 107.88 111.82 107.74C111.82 107.61 111.75 107.57 111.65 107.57C111.45 107.57 111.33 107.61 110.75 107.61L110.1 107.61C109.53 107.61 109.41 107.57 109.21 107.57C109.11 107.57 109.04 107.61 109.04 107.74C109.04 107.88 109.11 107.92 109.21 107.92C109.33 107.92 109.44 107.89 109.68 107.89C109.89 107.89 110.02 108.02 110.02 108.23L110.02 112.69C110.02 112.9 109.89 113.03 109.68 113.03C109.44 113.03 109.33 113 109.21 113C109.11 113 109.04 113.05 109.04 113.18C109.04 113.31 109.11 113.36 109.21 113.36Z" fill="#F4F4F4" fill-opacity="1.000000" fill-rule="nonzero"/>
		<path id="Vector" d="M115.57 113.44C116.64 113.44 117.25 112.75 117.25 111.82C117.25 111.09 116.86 110.49 115.89 110.09L115.39 109.89C114.45 109.51 114.02 109.3 114.02 108.67C114.02 108.17 114.43 107.77 115.09 107.77C115.92 107.77 116.33 108.35 116.61 109.03C116.74 109.35 116.76 109.56 116.88 109.56C116.96 109.56 117 109.5 117 109.42C116.97 108.67 117 108.27 117 107.68C117 107.57 116.98 107.52 116.89 107.52C116.82 107.52 116.8 107.56 116.76 107.62C116.67 107.76 116.55 108 116.45 108C116.28 108 116.02 107.48 115.12 107.48C114.17 107.48 113.54 108.15 113.53 108.94C113.52 109.86 114.14 110.38 114.95 110.71L115.79 111.06C116.43 111.32 116.72 111.63 116.72 112.14C116.72 112.75 116.29 113.15 115.61 113.15C114.61 113.15 114.11 112.36 113.85 111.21C113.81 111.02 113.8 110.94 113.68 110.94C113.61 110.94 113.57 111 113.57 111.08C113.59 111.82 113.58 112.41 113.57 113.24C113.57 113.36 113.59 113.4 113.68 113.4C113.85 113.4 113.88 112.79 114.07 112.79C114.15 112.79 114.25 112.92 114.42 113.06C114.68 113.23 115.01 113.44 115.57 113.44Z" fill="#F4F4F4" fill-opacity="1.000000" fill-rule="nonzero"/>
		<path id="Vector" d="M119.89 113.36C120.09 113.36 120.21 113.32 120.79 113.32L121.44 113.32C122.01 113.32 122.13 113.36 122.34 113.36C122.43 113.36 122.5 113.31 122.5 113.18C122.5 113.05 122.43 113 122.34 113C122.22 113 122.1 113.03 121.86 113.03C121.65 113.03 121.52 112.9 121.52 112.69L121.52 108.14C121.52 107.97 121.6 107.89 121.77 107.89L122.13 107.89C122.9 107.89 123.09 108.72 123.36 109.61C123.38 109.69 123.39 109.77 123.49 109.77C123.58 109.77 123.6 109.69 123.6 109.64C123.59 109.03 123.57 108.51 123.58 107.85C123.58 107.62 123.47 107.57 123.29 107.57C122.98 107.57 122.38 107.61 122.01 107.61L120.21 107.61C119.85 107.61 119.25 107.57 118.94 107.57C118.76 107.57 118.65 107.62 118.65 107.85C118.66 108.51 118.64 109.03 118.63 109.64C118.63 109.69 118.65 109.77 118.73 109.77C118.84 109.77 118.84 109.69 118.87 109.61C119.14 108.72 119.33 107.89 120.09 107.89L120.46 107.89C120.62 107.89 120.7 107.97 120.7 108.14L120.7 112.69C120.7 112.9 120.58 113.03 120.36 113.03C120.13 113.03 120.01 113 119.89 113C119.79 113 119.73 113.05 119.73 113.18C119.73 113.31 119.79 113.36 119.89 113.36Z" fill="#F4F4F4" fill-opacity="1.000000" fill-rule="nonzero"/>
		<path id="Vector" d="M125.03 113.36C125.23 113.36 125.35 113.32 125.92 113.32L128.29 113.32C128.66 113.32 129.26 113.36 129.57 113.36C129.75 113.36 129.86 113.3 129.86 113.07C129.85 112.41 129.87 111.9 129.88 111.28C129.88 111.23 129.87 111.16 129.77 111.16C129.67 111.16 129.66 111.23 129.64 111.31C129.37 112.2 129.18 113.03 128.41 113.03L126.9 113.03C126.74 113.03 126.66 112.95 126.66 112.79L126.66 110.7C126.66 110.54 126.74 110.46 126.9 110.46L127.24 110.46C127.86 110.46 127.99 110.66 128.09 111.51C128.11 111.64 128.13 111.77 128.26 111.77C128.34 111.77 128.38 111.71 128.38 111.63C128.36 110.69 128.36 110 128.38 109.06C128.38 108.98 128.34 108.91 128.26 108.91C128.13 108.91 128.11 109.03 128.09 109.16C127.99 110.02 127.86 110.21 127.24 110.21L126.9 110.21C126.74 110.21 126.66 110.13 126.66 109.97L126.66 108.14C126.66 107.97 126.74 107.89 126.9 107.89L128.45 107.89C129.07 107.89 129.22 108.39 129.51 109.37C129.54 109.45 129.55 109.52 129.65 109.52C129.75 109.52 129.76 109.45 129.76 109.4C129.74 108.89 129.73 108.41 129.73 107.85C129.73 107.62 129.63 107.57 129.45 107.57C129.14 107.57 128.7 107.61 128.33 107.61L125.92 107.61C125.35 107.61 125.23 107.57 125.03 107.57C124.93 107.57 124.86 107.61 124.86 107.74C124.86 107.88 124.93 107.92 125.03 107.92C125.15 107.92 125.27 107.89 125.5 107.89C125.71 107.89 125.84 108.02 125.84 108.23L125.84 112.69C125.84 112.9 125.71 113.03 125.5 113.03C125.27 113.03 125.15 113 125.03 113C124.93 113 124.86 113.05 124.86 113.18C124.86 113.31 124.93 113.36 125.03 113.36Z" fill="#F4F4F4" fill-opacity="1.000000" fill-rule="nonzero"/>
		<path id="Vector" d="M131.75 113.36C131.96 113.36 132.08 113.32 132.65 113.32L134.45 113.32C135.75 113.32 136.41 112.57 136.41 111.75C136.41 110.97 135.76 110.45 135.11 110.32C135.11 110.32 135.09 110.31 135.09 110.29C135.09 110.27 135.11 110.27 135.11 110.27C135.66 110.09 136.2 109.74 136.2 109.03C136.2 107.97 135.13 107.61 134.08 107.61L132.65 107.61C132.08 107.61 131.96 107.57 131.75 107.57C131.66 107.57 131.59 107.61 131.59 107.74C131.59 107.88 131.66 107.92 131.75 107.92C131.88 107.92 131.99 107.89 132.23 107.89C132.44 107.89 132.57 108.02 132.57 108.23L132.57 112.69C132.57 112.9 132.44 113.03 132.23 113.03C131.99 113.03 131.88 113 131.75 113C131.66 113 131.59 113.05 131.59 113.18C131.59 113.31 131.66 113.36 131.75 113.36ZM133.59 110.17C133.43 110.17 133.39 110.13 133.39 109.97L133.39 108.15C133.39 107.99 133.49 107.89 133.64 107.89L134.17 107.89C134.87 107.89 135.3 108.26 135.3 109.03C135.3 109.81 134.87 110.17 134.17 110.17L133.59 110.17ZM133.64 113.03C133.49 113.03 133.39 112.93 133.39 112.78L133.39 110.62C133.39 110.46 133.43 110.42 133.59 110.42L134.24 110.42C134.94 110.42 135.47 110.83 135.47 111.77C135.47 112.7 134.94 113.03 134.24 113.03L133.64 113.03Z" fill="#F4F4F4" fill-opacity="1.000000" fill-rule="nonzero"/>
		<path id="Vector" d="M142.33 113.4C142.43 113.4 142.44 113.27 142.44 113.19L142.44 108.23C142.44 108.02 142.57 107.89 142.78 107.89C143.02 107.89 143.13 107.92 143.25 107.92C143.35 107.92 143.42 107.88 143.42 107.74C143.42 107.61 143.35 107.57 143.25 107.57C143.05 107.57 142.93 107.61 142.36 107.61L142.2 107.61C141.63 107.61 141.5 107.57 141.3 107.57C141.2 107.57 141.14 107.61 141.14 107.74C141.14 107.88 141.2 107.92 141.3 107.92C141.42 107.92 141.53 107.89 141.77 107.89C141.98 107.89 142.11 108.02 142.11 108.23L142.11 111.39C142.11 111.51 142.09 111.56 142.03 111.56C141.97 111.56 141.93 111.49 141.89 111.44L139.52 107.85C139.4 107.66 139.2 107.61 138.98 107.61L138.54 107.61C138.37 107.61 138.03 107.58 137.94 107.58C137.83 107.58 137.79 107.67 137.79 107.75C137.79 107.85 137.88 107.9 137.99 107.92C138.28 107.96 138.67 108.1 138.81 108.41C138.84 108.49 138.85 108.56 138.85 108.63L138.85 112.69C138.85 112.9 138.72 113.03 138.51 113.03C138.27 113.03 138.16 113 138.03 113C137.94 113 137.87 113.05 137.87 113.18C137.87 113.31 137.94 113.36 138.03 113.36C138.24 113.36 138.36 113.32 138.93 113.32L139.1 113.32C139.67 113.32 139.79 113.36 139.99 113.36C140.09 113.36 140.16 113.31 140.16 113.18C140.16 113.05 140.09 113 139.99 113C139.87 113 139.76 113.03 139.52 113.03C139.31 113.03 139.18 112.9 139.18 112.69L139.18 109.21C139.18 109.08 139.2 109.03 139.26 109.03C139.32 109.03 139.36 109.11 139.4 109.15L142.07 113.2C142.2 113.39 142.25 113.4 142.33 113.4Z" fill="#F4F4F4" fill-opacity="1.000000" fill-rule="nonzero"/>
		<path id="Vector" d="M144.56 113.36C144.76 113.36 145 113.32 145.46 113.32L145.56 113.32C145.9 113.32 146.18 113.36 146.34 113.36C146.43 113.36 146.5 113.31 146.5 113.18C146.5 113.05 146.43 113 146.34 113C146.22 113 146.1 113.03 145.97 113.03C145.74 113.03 145.65 112.94 145.65 112.81C145.65 112.76 145.67 112.7 145.69 112.63L146.07 111.54C146.13 111.39 146.23 111.32 146.39 111.32L147.52 111.32C147.68 111.32 147.79 111.39 147.85 111.54L148.22 112.62C148.31 112.89 148.17 113.03 147.95 113.03C147.82 113.03 147.68 113 147.56 113C147.46 113 147.4 113.05 147.4 113.18C147.4 113.31 147.46 113.36 147.56 113.36C147.76 113.36 147.89 113.32 148.38 113.32L148.99 113.32C149.44 113.32 149.6 113.36 149.81 113.36C149.9 113.36 149.97 113.31 149.97 113.18C149.97 113.05 149.9 113 149.81 113C149.68 113 149.61 113.03 149.5 113.03C149.29 113.03 149.18 112.88 149.11 112.7L147.78 108.84C147.65 108.45 147.52 108.07 147.41 107.68C147.37 107.54 147.29 107.48 147.2 107.48C147.11 107.48 147.05 107.57 147 107.72C146.87 108.15 146.78 108.41 146.59 108.95L145.36 112.6C145.26 112.9 145.09 113.03 144.89 113.03C144.71 113.03 144.68 113 144.56 113C144.46 113 144.4 113.05 144.4 113.18C144.4 113.31 144.46 113.36 144.56 113.36ZM146.44 111.03C146.28 111.03 146.25 110.99 146.31 110.84L146.83 109.28C146.85 109.21 146.89 109.15 146.93 109.15C147 109.15 147.04 109.21 147.06 109.29L147.6 110.84C147.66 110.99 147.63 111.03 147.46 111.03L146.44 111.03Z" fill="#F4F4F4" fill-opacity="1.000000" fill-rule="nonzero"/>
	</g>
</svg>
